Coordinates
version=1
nRows=17
nColumns=40
inDegrees=yes

Units are S.I. units (second, meters, Newtons, ...)
If the header above contains a line with 'inDegrees', this indicates whether rotational values are in degrees (yes) or radians (no).

endheader
time	pelvis_tilt	pelvis_list	pelvis_rotation	pelvis_tx	pelvis_ty	pelvis_tz	hip_flexion_r	hip_adduction_r	hip_rotation_r	knee_angle_r	knee_angle_r_beta	ankle_angle_r	subtalar_angle_r	mtp_angle_r	hip_flexion_l	hip_adduction_l	hip_rotation_l	knee_angle_l	knee_angle_l_beta	ankle_angle_l	subtalar_angle_l	mtp_angle_l	lumbar_extension	lumbar_bending	lumbar_rotation	arm_flex_r	arm_add_r	arm_rot_r	elbow_flex_r	pro_sup_r	wrist_flex_r	wrist_dev_r	arm_flex_l	arm_add_l	arm_rot_l	elbow_flex_l	pro_sup_l	wrist_flex_l	wrist_dev_l
      0.57000000	     11.15915697	      0.56383855	      1.41280329	      0.52015992	      0.94369809	     -0.23660504	    -20.80395734	      4.06073167	     -1.99304099	     12.85835734	      0.22442067	     14.28354129	      0.00000000	      0.00000000	      9.07340105	      2.79394830	      4.27048536	      7.91982037	      0.13822694	      5.19736564	      0.00000000	      0.00000000	    -29.24763232	     -1.90620634	      7.86754340	      7.50146837	     -4.42032338	      1.59977745	     42.32462595	     89.18869454	    -17.82653315	     -8.95175591	     -1.90982252	     -4.56447515	     14.57663933	     31.30635796	     89.34928543	      0.67769854	     12.50490431
      0.58000000	     11.26352514	      0.60847528	      1.31314982	      0.53065208	      0.94316217	     -0.23740853	    -21.16327128	      3.83362273	     -2.09306080	     13.79825269	      0.24082494	     13.97922778	      0.00000000	      0.00000000	      8.71132650	      2.92341806	      4.27413314	      7.80891048	      0.13629120	      5.37468370	      0.00000000	      0.00000000	    -29.30769521	     -2.03307055	      8.00031814	      7.52457141	     -4.33464272	      1.46922627	     41.99222758	     89.22666979	    -17.86091484	     -8.94139780	     -1.88485483	     -4.51493416	     14.54882634	     31.40198609	     89.40556580	      0.66213355	     12.45083803
      0.59000000	     11.38738194	      0.71002146	      1.09707323	      0.54160346	      0.94267002	     -0.23795055	    -21.56927139	      3.51524732	     -2.10074431	     14.71895007	      0.25689414	     13.67068618	      0.00000000	      0.00000000	      8.35498264	      3.08174375	      3.90091735	      8.14723861	      0.14219614	      5.42243102	      0.00000000	      0.00000000	    -29.35370952	     -2.27558914	      8.11288082	      7.43095648	     -4.21661165	      1.43590560	     41.82267557	     89.22439800	    -17.88872581	     -9.04284470	     -1.94299517	     -4.51177214	     14.49004603	     31.51168366	     89.38384182	      0.63062346	     12.36727562
      0.60000000	     11.46016943	      0.81758757	      0.91522549	      0.55268473	      0.94221020	     -0.23873648	    -21.85426799	      3.17613156	     -2.10314356	     15.76710231	      0.27518785	     13.22543739	      0.00000000	      0.00000000	      8.06366777	      3.27404762	      3.51456368	      8.78007072	      0.15324114	      5.46318688	      0.00000000	      0.00000000	    -29.34112636	     -2.49709349	      8.23340547	      7.27610262	     -4.11370102	      1.37609620	     41.60050002	     89.22123748	    -17.92217656	     -9.15043768	     -1.97294550	     -4.49140971	     14.44230870	     31.64906956	     89.37985960	      0.60243273	     12.28134559
      0.61000000	     11.58679921	      0.91423849	      0.79543785	      0.56390088	      0.94192479	     -0.23968144	    -22.12841417	      2.84782364	     -2.18070592	     16.94746748	      0.29578911	     12.60475716	      0.00000000	      0.00000000	      7.70303151	      3.47371533	      3.46665983	      9.59644992	      0.16748965	      5.44624088	      0.00000000	      0.00000000	    -29.34937323	     -2.68388471	      8.32737233	      7.08615070	     -3.99824760	      1.29024590	     41.27935259	     89.21720553	    -17.94022655	     -9.14994344	     -1.96037663	     -4.46776939	     14.45733708	     31.73043367	     89.38730253	      0.60063565	     12.23412329
      0.62000000	     11.70125078	      1.02324661	      0.61695596	      0.57515714	      0.94174475	     -0.24065923	    -22.21951854	      2.44483913	     -2.33155272	     18.44981042	      0.32200994	     11.74504099	      0.00000000	      0.00000000	      7.33800690	      3.69105742	      3.25159601	     10.53166047	      0.18381215	      5.38992092	      0.00000000	      0.00000000	    -29.37767305	     -2.87697665	      8.34835157	      6.88558472	     -3.86612448	      1.20744407	     41.05122524	     89.21956979	    -17.95407721	     -9.19091530	     -1.97325807	     -4.45101956	     14.50127147	     31.82788649	     89.38945171	      0.60793042	     12.18318617
      0.63000000	     11.85954941	      1.14313547	      0.44771479	      0.58653798	      0.94175348	     -0.24175492	    -22.23625536	      2.00523620	     -2.47506271	     20.15586608	      0.35178623	     10.73036389	      0.00000000	      0.00000000	      6.88303950	      3.93659721	      3.16109366	     11.47339392	      0.20024850	      5.27319699	      0.00000000	      0.00000000	    -29.43034384	     -3.06286569	      8.38150185	      6.63628835	     -3.74076892	      1.12695842	     40.74951148	     89.21428848	    -17.95960587	     -9.20372637	     -1.95523463	     -4.42496170	     14.55338899	     31.92005612	     89.38569508	      0.62096644	     12.13759113
      0.64000000	     11.99852032	      1.27166585	      0.20008773	      0.59789760	      0.94187256	     -0.24273936	    -22.01677817	      1.48081395	     -2.65396529	     22.24806754	      0.38830203	      9.38751190	      0.00000000	      0.00000000	      6.41845617	      4.18453300	      3.01077357	     12.39051226	      0.21625523	      5.07662383	      0.00000000	      0.00000000	    -29.50201495	     -3.28758451	      8.36364142	      6.40233703	     -3.57727074	      1.06336864	     40.51291434	     89.22064157	    -17.95410431	     -9.25036465	     -1.94036577	     -4.41822726	     14.63516798	     32.00081555	     89.38734632	      0.64549724	     12.09573717
      0.65000000	     11.94465284	      1.44584787	     -0.14676540	      0.60927873	      0.94187081	     -0.24368956	    -21.37811157	      0.83882627	     -2.70388825	     24.65072134	      0.43023625	      7.71427250	      0.00000000	      0.00000000	      6.11210930	      4.47625692	      2.65768944	     13.18164889	      0.23006317	      4.68733808	      0.00000000	      0.00000000	    -29.37359347	     -3.59782303	      8.43586679	      6.08474284	     -3.45110656	      1.04936773	     40.27329794	     89.21055980	    -17.91676089	     -9.37390456	     -1.91401352	     -4.40318826	     14.71877168	     32.11031330	     89.37832237	      0.68244648	     12.04273912
      0.66000000	     12.13560565	      1.61914308	     -0.44600000	      0.62057672	      0.94236461	     -0.24474828	    -20.83870516	      0.18066147	     -2.80761659	     27.26946604	      0.47594197	      5.89396547	      0.00000000	      0.00000000	      5.49769282	      4.79673878	      2.66259581	     13.87657755	      0.24219197	      4.49221902	      0.00000000	      0.00000000	    -29.48685309	     -3.85549995	      8.38893082	      5.83321253	     -3.30255202	      1.01977445	     39.93737763	     89.21086598	    -17.87340181	     -9.42266690	     -1.81807233	     -4.38750319	     14.87426010	     32.12046340	     89.37923399	      0.73806433	     12.02081261
      0.67000000	     12.36756866	      1.81146880	     -0.74854269	      0.63183118	      0.94301277	     -0.24592195	    -20.16703967	     -0.54588617	     -2.93831508	     30.10735646	      0.52547250	      3.79404812	      0.00000000	      0.00000000	      4.79393896	      5.15952836	      2.71187583	     14.44457481	      0.25210539	      4.32381071	      0.00000000	      0.00000000	    -29.65193142	     -4.10800554	      8.28536721	      5.57613001	     -3.14947457	      1.01706073	     39.59135297	     89.20807515	    -17.82006092	     -9.44063457	     -1.69903217	     -4.37275185	     15.05323591	     32.13188364	     89.37924705	      0.80339437	     12.01755597
      0.68000000	     12.55941488	      2.01498304	     -1.11333259	      0.64293556	      0.94371856	     -0.24697607	    -19.23377455	     -1.34138218	     -3.03262523	     33.18254764	      0.57914471	      1.50669964	      0.00000000	      0.00000000	      4.10145367	      5.52891114	      2.67249687	     14.88975081	      0.25987518	      4.16502955	      0.00000000	      0.00000000	    -29.79400678	     -4.40035028	      8.19901523	      5.34410981	     -2.98848707	      1.03300930	     39.18100281	     89.19766905	    -17.74267457	     -9.44088239	     -1.53293724	     -4.35965183	     15.24310235	     32.11651937	     89.37928414	      0.88521847	     12.04493306
      0.69000000	     12.85708601	      2.24415227	     -1.42216480	      0.65389575	      0.94458251	     -0.24822278	    -18.27464681	     -2.16912471	     -3.12367413	     36.34938910	      0.63441652	     -0.86977570	      0.00000000	      0.00000000	      3.26797308	      5.95955545	      2.81597572	     15.23146520	      0.26583922	      4.22528325	      0.00000000	      0.00000000	    -30.06483652	     -4.65858592	      7.96045954	      5.11584618	     -2.84674685	      1.09850992	     38.85191332	     89.20026148	    -17.66402119	     -9.42155315	     -1.34500415	     -4.35601016	     15.47030592	     32.11592701	     89.37728084	      0.97224299	     12.08233155
      0.70000000	     13.09840980	      2.49497866	     -1.75404137	      0.66474479	      0.94538065	     -0.24954987	    -17.09422723	     -3.05682574	     -3.14778115	     39.59788326	      0.69111344	     -3.28121416	      0.00000000	      0.00000000	      2.47228226	      6.42030506	      2.88125787	     15.47836508	      0.27014843	      4.31150994	      0.00000000	      0.00000000	    -30.27393284	     -4.91128014	      7.70693763	      4.89184809	     -2.71846509	      1.19148854	     38.48097829	     89.19936487	    -17.57218936	     -9.37881278	     -1.13261495	     -4.34039062	     15.70093971	     32.12216609	     89.37731570	      1.06802798	     12.14791538
      0.71000000	     13.00482584	      2.73805066	     -2.32339461	      0.67523380	      0.94565860	     -0.25040576	    -15.27817254	     -3.98489083	     -2.84671241	     43.09494635	      0.75214870	     -5.23660814	      0.00000000	      0.00000000	      2.06484926	      6.82348718	      2.44737851	     15.69289075	      0.27389261	      4.35922362	      0.00000000	      0.00000000	    -30.12121543	     -5.28628768	      7.66952354	      4.72701739	     -2.59467200	      1.34601914	     37.91798481	     89.19047531	    -17.38158554	     -9.31137042	     -0.84020863	     -4.31664343	     15.89643461	     32.02631152	     89.38038571	      1.23628463	     12.35307125
      0.72000000	     13.27420103	      2.96830525	     -2.57156688	      0.68577419	      0.94647732	     -0.25180632	    -13.94050422	     -4.81623959	     -2.82705579	     46.23079420	      0.80687957	     -7.18407750	      0.00000000	      0.00000000	      1.19132522	      7.28123024	      2.62865919	     15.79207605	      0.27562372	      4.71782770	      0.00000000	      0.00000000	    -30.40737599	     -5.46873299	      7.30245714	      4.50272364	     -2.48105941	      1.47622241	     37.58694234	     89.18929792	    -17.27777713	     -9.25145518	     -0.55208864	     -4.34643304	     16.14806685	     32.09166619	     89.38171543	      1.35217760	     12.43488684
      0.73000000	     13.14959734	      3.21687549	     -3.03910400	      0.69596950	      0.94661707	     -0.25289604	    -11.94547729	     -5.65897681	     -2.41272629	     49.50453095	      0.86401706	     -8.41509905	      0.00000000	      0.00000000	      0.79813258	      7.71336719	      2.30525163	     15.92532541	      0.27794936	      4.95212736	      0.00000000	      0.00000000	    -30.24732606	     -5.74489091	      7.08172748	      4.35498062	     -2.37997079	      1.68816766	     37.07215022	     89.18928006	    -17.10191807	     -9.13855926	     -0.22426789	     -4.33756280	     16.31492494	     32.04454781	     89.38427898	      1.51085165	     12.66924881
